<?xml version="1.0" standalone="no"?>
<svg viewBox="0 0 200 200" xmlns="http://www.w3.org/2000/svg">
  <path fill="#FF0066" d="M35.6,-65.3C43,-57.3,43.9,-41.6,52,-29.4C60.1,-17.2,75.6,-8.6,77.6,1.2C79.7,11,68.3,21.9,61.4,36.3C54.5,50.6,52.1,68.3,42.6,74.9C33.1,81.5,16.5,77,2.7,72.3C-11.1,67.6,-22.2,62.7,-34.8,57.8C-47.4,53,-61.5,48.4,-71,38.7C-80.4,29.1,-85.2,14.6,-85.1,0.1C-85,-14.5,-80.1,-28.9,-69.7,-36.9C-59.3,-44.8,-43.4,-46.3,-30.9,-51.3C-18.4,-56.3,-9.2,-64.9,2.4,-69.2C14.1,-73.4,28.1,-73.2,35.6,-65.3Z" transform="translate(100 100)" />
</svg>
